<?xml version="1.0" encoding="UTF-8"?>
<mxfile host="app.diagrams.net" modified="2025-09-20T00:32:35.542356" version="22.1.11">
  <diagram name="BMC Architecture" id="refactored_diagram">
    <mxGraphModel dx="2500" dy="1600" grid="1" gridSize="10" guides="1" tooltips="1" connect="1" arrows="1" fold="1" page="1" pageScale="1" pageWidth="1400" pageHeight="1000">
      <root>
        <mxCell id="0"/>
        <mxCell id="1" parent="0"/>
        <mxCell id="ms_invoice_service" value="Invoice_Service Service\n2vCPU/4GB\nAuto Scaling" style="shape=mxgraph.aws4.fargate;fillColor=#E8F5E8;strokeColor=#4CAF50;fontColor=#2E7D32;fontSize=12;labelPosition=bottom;verticalLabelPosition=top;align=center;verticalAlign=bottom;" vertex="1" parent="1">
          <mxGeometry x="133" y="100" width="120" height="80" as="geometry"/>
        </mxCell>
        <mxCell id="ms_product_service" value="Product_Service Service\n2vCPU/4GB\nAuto Scaling" style="shape=mxgraph.aws4.fargate;fillColor=#E8F5E8;strokeColor=#4CAF50;fontColor=#2E7D32;fontSize=12;labelPosition=bottom;verticalLabelPosition=top;align=center;verticalAlign=bottom;" vertex="1" parent="1">
          <mxGeometry x="386" y="100" width="120" height="80" as="geometry"/>
        </mxCell>
        <mxCell id="ms_ocr_service" value="Ocr_Service Service\n2vCPU/4GB\nAuto Scaling" style="shape=mxgraph.aws4.fargate;fillColor=#E8F5E8;strokeColor=#4CAF50;fontColor=#2E7D32;fontSize=12;labelPosition=bottom;verticalLabelPosition=top;align=center;verticalAlign=bottom;" vertex="1" parent="1">
          <mxGeometry x="639" y="100" width="120" height="80" as="geometry"/>
        </mxCell>
        <mxCell id="ms_commission_service" value="Commission_Service Service\n2vCPU/4GB\nAuto Scaling" style="shape=mxgraph.aws4.fargate;fillColor=#E8F5E8;strokeColor=#4CAF50;fontColor=#2E7D32;fontSize=12;labelPosition=bottom;verticalLabelPosition=top;align=center;verticalAlign=bottom;" vertex="1" parent="1">
          <mxGeometry x="892" y="100" width="120" height="80" as="geometry"/>
        </mxCell>
        <mxCell id="ms_certificate_service" value="Certificate_Service Service\n2vCPU/4GB\nAuto Scaling" style="shape=mxgraph.aws4.fargate;fillColor=#E8F5E8;strokeColor=#4CAF50;fontColor=#2E7D32;fontSize=12;labelPosition=bottom;verticalLabelPosition=top;align=center;verticalAlign=bottom;" vertex="1" parent="1">
          <mxGeometry x="1145" y="100" width="120" height="80" as="geometry"/>
        </mxCell>
        <mxCell id="aws_rds" value="RDS PostgreSQL\ndb.r5.2xlarge\nMulti-AZ" style="shape=mxgraph.aws4.rds;fillColor=#E3F2FD;strokeColor=#1976D2;fontColor=#2E7D32;fontSize=12;labelPosition=bottom;verticalLabelPosition=top;align=center;verticalAlign=bottom;" vertex="1" parent="1">
          <mxGeometry x="386" y="300" width="120" height="80" as="geometry"/>
        </mxCell>
        <mxCell id="aws_s3" value="S3 Storage\nIntelligent Tiering\nVersioning" style="shape=mxgraph.aws4.s3;fillColor=#E3F2FD;strokeColor=#1976D2;fontColor=#2E7D32;fontSize=12;labelPosition=bottom;verticalLabelPosition=top;align=center;verticalAlign=bottom;" vertex="1" parent="1">
          <mxGeometry x="892" y="300" width="120" height="80" as="geometry"/>
        </mxCell>
        <mxCell id="conn_ms_invoice_service_to_aws_rds" style="edgeStyle=orthogonalEdgeStyle;rounded=0;orthogonalLoop=1;jettySize=auto;html=1;strokeColor=#2196F3;strokeWidth=2;fontColor=#2196F3;" edge="1" parent="1" source="ms_invoice_service" target="aws_rds">
          <mxGeometry relative="1" as="geometry">
            <Array as="points"/>
          </mxGeometry>
        </mxCell>
        <mxCell id="label_1001" value="Database Access" style="edgeLabel;html=1;align=center;verticalAlign=middle;resizable=0;points=[];fontSize=12;fontColor=#2196F3;" vertex="1" connectable="0" parent="conn_ms_invoice_service_to_aws_rds">
          <mxGeometry x="-0.1" y="1" relative="1" as="geometry">
            <mxPoint as="offset"/>
          </mxGeometry>
        </mxCell>
        <mxCell id="conn_ms_product_service_to_aws_rds" style="edgeStyle=orthogonalEdgeStyle;rounded=0;orthogonalLoop=1;jettySize=auto;html=1;strokeColor=#2196F3;strokeWidth=2;fontColor=#2196F3;" edge="1" parent="1" source="ms_product_service" target="aws_rds">
          <mxGeometry relative="1" as="geometry">
            <Array as="points"/>
          </mxGeometry>
        </mxCell>
        <mxCell id="label_1002" value="Database Access" style="edgeLabel;html=1;align=center;verticalAlign=middle;resizable=0;points=[];fontSize=12;fontColor=#2196F3;" vertex="1" connectable="0" parent="conn_ms_product_service_to_aws_rds">
          <mxGeometry x="-0.1" y="1" relative="1" as="geometry">
            <mxPoint as="offset"/>
          </mxGeometry>
        </mxCell>
      </root>
    </mxGraphModel>
  </diagram>
</mxfile>